<svg aria-label="Leaf icon" fill="none" focusable="false" role="img" viewBox="0 0 100 100"
     xmlns="http://www.w3.org/2000/svg">
  <defs>
    <linearGradient id="fill" x1="33.34" x2="66.67" y1="33.34" y2="66.67"
                    gradientUnits="userSpaceOnUse">
      <stop offset="0" stop-color="#0f6" />
      <stop offset="1" stop-color="#0f5e07" />
    </linearGradient>
  </defs>
  <path filter="drop-shadow(0 2 2 #0003)" fill="url(#fill)" transform="scale(.925)"
        d="M91.907 5.711c-1.735.4-42.67 9.945-57.375 24.752-7.255 7.3-12.339 15.963-14.314 24.381-1.494 6.368-1.086 12.065 1.1 16.572A210.81 210.81 0 0 0 5 92.848L8.363 95a204.559 204.559 0 0 1 15.208-20.077c.3.359.614.708.946 1.043 3.409 3.433 8.191 5.218 13.786 5.218a29.757 29.757 0 0 0 5.388-.513l1.556-.286.421-8.951 11.082 4.374.831-.484a58.976 58.976 0 0 0 12.129-9.441C84.416 51.076 93.9 9.861 94.294 8.113L95 5ZM66.893 63.046a55.331 55.331 0 0 1-10.486 8.317l-14.456-5.705-.532 11.31c-5.893.749-10.857-.59-14.084-3.838a12.482 12.482 0 0 1-1.106-1.291 219.431 219.431 0 0 1 36.4-33.49l-2.313-3.267a222.347 222.347 0 0 0-36.075 32.975 22.359 22.359 0 0 1-.141-12.291c1.8-7.702 6.51-15.681 13.25-22.466 11.627-11.707 42.323-20.333 52.28-22.894-2.542 10.026-11.105 40.929-22.737 52.64Z" />
</svg>