<svg viewBox="0 0 42 42" fill="none" xmlns="http://www.w3.org/2000/svg">
  <path d="M.35 26H26V.35H.35V26Zm20.713-15.293h-5.42v-5.42h5.42v5.42ZM5.286 5.287h5.423v10.356h10.354v5.42H5.286V5.287Z"
        fill="#D0DBE6" />
  <path d="M22.906 4a1 1 0 0 0-1-1H4.104a1 1 0 0 0-1 1v17.802a1 1 0 0 0 1 1h17.802a1 1 0 0 0 1-1V4Z"
        fill="url(#a)" />
  <path d="M14 21h-2.087v-4.42c0-.532-.066-.94-.199-1.222a.9.9 0 0 0-.617-.517 1.606 1.606 0 0 0-.42-.051c-.396 0-.73.111-1.004.335-.273.223-.468.5-.586.832V21H7v-7.782h1.654l.24 1.027h.065c.176-.235.385-.446.621-.626.115-.088.234-.17.358-.245.212-.128.444-.221.686-.278.2-.048.415-.078.649-.09a3.868 3.868 0 0 1 .792.032c.172.024.341.063.506.118.31.103.573.275.787.513.214.239.374.563.481.973.082.312.132.68.152 1.102.006.139.01.277.009.416V21ZM15.79 14.038c.526-.692 1.265-1.038 2.216-1.038.211-.001.422.017.63.055a2.544 2.544 0 0 1 .695.233 2.535 2.535 0 0 1 .93.81c.18.257.326.546.432.855.047.134.088.271.122.41.08.323.133.654.159.988.018.216.026.432.026.649 0 .917-.134 1.683-.4 2.298a3.23 3.23 0 0 1-.383.664c-.372.488-.867.82-1.41.944a3.25 3.25 0 0 1-.8.094 3.434 3.434 0 0 1-.63-.055 2.552 2.552 0 0 1-.695-.233 2.588 2.588 0 0 1-.937-.81 3.407 3.407 0 0 1-.449-.887 4.476 4.476 0 0 1-.111-.379 6.212 6.212 0 0 1-.159-.987A7.855 7.855 0 0 1 15 17c0-.917.135-1.683.404-2.298.104-.24.234-.463.386-.664ZM16.707 17c0 .18.008.36.024.538.012.13.03.259.052.386.025.141.06.28.101.415.036.113.079.223.129.328.066.14.152.265.255.37.046.045.095.086.146.122a.938.938 0 0 0 .348.15c.08.017.162.025.244.024a1.045 1.045 0 0 0 .968-.56c.077-.14.137-.291.179-.45.093-.346.14-.786.14-1.323 0-.224-.01-.449-.035-.671a3.965 3.965 0 0 0-.118-.631 2.692 2.692 0 0 0-.14-.387 1.131 1.131 0 0 0-.29-.405.903.903 0 0 0-.412-.207 1.265 1.265 0 0 0-.292-.032c-.407 0-.726.181-.955.545a1.764 1.764 0 0 0-.192.445 4.452 4.452 0 0 0-.149 1.103 8.33 8.33 0 0 0-.003.24Z"
        fill="#fff" />
  <g filter="url(#b)">
    <path d="M35.27 18.524c.77-.085 1.413-.462 1.788-1.046l1.221-1.906c.374-.584.45-1.329.208-2.07-.503-1.541-2.212-2.647-3.817-2.469-.77.086-1.414.462-1.788 1.046l-.845 1.32-2.462 3.842c-.179.279-.486.458-.854.5-.617.068-1.265-.26-1.62-.774l-.777 1.213c.769.719 1.842 1.133 2.872 1.019.771-.086 1.414-.462 1.789-1.046l3.306-5.161c.18-.28.487-.459.855-.5.766-.085 1.582.443 1.822 1.18.116.353.08.709-.099.988l-1.221 1.906c-.179.28-.486.459-.854.5-.617.068-1.265-.26-1.62-.774l-.777 1.213c.769.72 1.842 1.134 2.872 1.02Z"
          fill="#394149" />
    <path d="M28.375 14.407c.134-.165.354-.278.615-.315.435-.062.883.098 1.12.375l.578-.715c-.523-.377-1.267-.57-1.995-.466-.545.077-1.008.314-1.287.659l-2.46 3.042c-.134.165-.355.278-.615.315-.542.077-1.103-.19-1.253-.597a.562.562 0 0 1 .096-.563l.909-1.123c.133-.165.354-.278.614-.315.436-.062.884.098 1.12.375l.579-.715c-.523-.377-1.268-.57-1.996-.466-.545.077-1.008.315-1.286.659l-.91 1.124c-.278.344-.35.767-.199 1.177.314.852 1.489 1.412 2.623 1.25.545-.078 1.008-.315 1.286-.66l2.461-3.041Z"
          fill="#878B6D" fill-opacity=".825" />
  </g>
  <g filter="url(#c)">
    <path d="M36.5 32a2.5 2.5 0 1 0 0-5 2.5 2.5 0 0 0 0 5Z" fill="#394149" fill-opacity=".33"
          shape-rendering="crispEdges" />
  </g>
  <path d="M33 22a1 1 0 1 0 0-2 1 1 0 0 0 0 2ZM29.5 22a.5.5 0 1 0 0-1 .5.5 0 0 0 0 1Z"
        fill="#394149" />
  <g filter="url(#d)">
    <path d="M36.5 25a1.5 1.5 0 1 0 0-3 1.5 1.5 0 0 0 0 3Z" fill="#394149" fill-opacity=".66"
          shape-rendering="crispEdges" />
  </g>
  <defs>
    <filter id="b" x="19.928" y="9.265" width="20.698" height="12.203"
            filterUnits="userSpaceOnUse" color-interpolation-filters="sRGB">
      <feFlood flood-opacity="0" result="BackgroundImageFix" />
      <feColorMatrix in="SourceAlpha" values="0 0 0 0 0 0 0 0 0 0 0 0 0 0 0 0 0 0 127 0"
                     result="hardAlpha" />
      <feOffset dy=".25" />
      <feGaussianBlur stdDeviation="1" />
      <feComposite in2="hardAlpha" operator="out" />
      <feColorMatrix values="0 0 0 0 0 0 0 0 0 0 0 0 0 0 0 0 0 0 0.25 0" />
      <feBlend in2="BackgroundImageFix" result="effect1_dropShadow_0_1" />
      <feBlend in="SourceGraphic" in2="effect1_dropShadow_0_1" result="shape" />
    </filter>
    <filter id="c" x="32" y="25.125" width="9" height="9" filterUnits="userSpaceOnUse"
            color-interpolation-filters="sRGB">
      <feFlood flood-opacity="0" result="BackgroundImageFix" />
      <feColorMatrix in="SourceAlpha" values="0 0 0 0 0 0 0 0 0 0 0 0 0 0 0 0 0 0 127 0"
                     result="hardAlpha" />
      <feOffset dy=".125" />
      <feGaussianBlur stdDeviation="1" />
      <feComposite in2="hardAlpha" operator="out" />
      <feColorMatrix values="0 0 0 0 0 0 0 0 0 0 0 0 0 0 0 0 0 0 0.12 0" />
      <feBlend in2="BackgroundImageFix" result="effect1_dropShadow_0_1" />
      <feBlend in="SourceGraphic" in2="effect1_dropShadow_0_1" result="shape" />
    </filter>
    <filter id="d" x="33" y="20.5" width="7" height="7" filterUnits="userSpaceOnUse"
            color-interpolation-filters="sRGB">
      <feFlood flood-opacity="0" result="BackgroundImageFix" />
      <feColorMatrix in="SourceAlpha" values="0 0 0 0 0 0 0 0 0 0 0 0 0 0 0 0 0 0 127 0"
                     result="hardAlpha" />
      <feOffset dy=".5" />
      <feGaussianBlur stdDeviation="1" />
      <feComposite in2="hardAlpha" operator="out" />
      <feColorMatrix values="0 0 0 0 0 0 0 0 0 0 0 0 0 0 0 0 0 0 0.09 0" />
      <feBlend in2="BackgroundImageFix" result="effect1_dropShadow_0_1" />
      <feBlend in="SourceGraphic" in2="effect1_dropShadow_0_1" result="shape" />
    </filter>
    <linearGradient id="a" x1="23" y1="23" x2="9.5" y2="4.5" gradientUnits="userSpaceOnUse">
      <stop stop-color="#24DF9C" />
      <stop offset="1" stop-color="#CFBA00" stop-opacity=".38" />
    </linearGradient>
  </defs>
</svg>